<?xml version="1.0" standalone="no"?><svg xmlns="http://www.w3.org/2000/svg" viewBox="0 0 1440 320"><path fill="#FB7AFC" fill-opacity="1" d="M0,160L0,256L130.9,256L130.9,256L261.8,256L261.8,64L392.7,64L392.7,256L523.6,256L523.6,32L654.5,32L654.5,64L785.5,64L785.5,160L916.4,160L916.4,192L1047.3,192L1047.3,0L1178.2,0L1178.2,256L1309.1,256L1309.1,192L1440,192L1440,320L1309.1,320L1309.1,320L1178.2,320L1178.2,320L1047.3,320L1047.3,320L916.4,320L916.4,320L785.5,320L785.5,320L654.5,320L654.5,320L523.6,320L523.6,320L392.7,320L392.7,320L261.8,320L261.8,320L130.9,320L130.9,320L0,320L0,320Z"></path></svg>