<?xml version="1.0" standalone="no"?><svg xmlns="http://www.w3.org/2000/svg" viewBox="0 0 1440 320"><path fill="#FBC7F7" fill-opacity="1" d="M0,64L0,32L130.9,32L130.9,256L261.8,256L261.8,288L392.7,288L392.7,32L523.6,32L523.6,320L654.5,320L654.5,192L785.5,192L785.5,256L916.4,256L916.4,192L1047.3,192L1047.3,64L1178.2,64L1178.2,160L1309.1,160L1309.1,224L1440,224L1440,320L1309.1,320L1309.1,320L1178.2,320L1178.2,320L1047.3,320L1047.3,320L916.4,320L916.4,320L785.5,320L785.5,320L654.5,320L654.5,320L523.6,320L523.6,320L392.7,320L392.7,320L261.8,320L261.8,320L130.9,320L130.9,320L0,320L0,320Z"></path></svg>