<?xml version="1.0" standalone="no"?><svg xmlns="http://www.w3.org/2000/svg" viewBox="0 0 1440 320"><path fill="#C490E4" fill-opacity="1" d="M0,160L0,160L130.9,160L130.9,64L261.8,64L261.8,288L392.7,288L392.7,192L523.6,192L523.6,160L654.5,160L654.5,0L785.5,0L785.5,288L916.4,288L916.4,160L1047.3,160L1047.3,64L1178.2,64L1178.2,160L1309.1,160L1309.1,192L1440,192L1440,320L1309.1,320L1309.1,320L1178.2,320L1178.2,320L1047.3,320L1047.3,320L916.4,320L916.4,320L785.5,320L785.5,320L654.5,320L654.5,320L523.6,320L523.6,320L392.7,320L392.7,320L261.8,320L261.8,320L130.9,320L130.9,320L0,320L0,320Z"></path></svg>